#N canvas 93 160 450 403 10;
#X obj 43 32 ctlin;
#X obj 44 92 route 0 1 2;
#X obj 42 330 dac~;
#X msg 269 185 \; pd dsp 1;
#X obj 44 61 list prepend;
#X obj 43 298 *~;
#X obj 44 126 / 127;
#X obj 44 189 line~;
#X msg 44 154 \$1 50;
#X obj 108 250 osc~;
#X obj 106 224 mtof;
#X obj 106 174 / 4;
#X obj 106 202 + 36;
#X obj 106 147 line;
#X msg 106 125 \$1 50;
#X connect 0 0 4 0;
#X connect 0 1 4 1;
#X connect 1 0 6 0;
#X connect 1 1 14 0;
#X connect 4 0 1 0;
#X connect 5 0 2 0;
#X connect 5 0 2 1;
#X connect 6 0 8 0;
#X connect 7 0 5 0;
#X connect 8 0 7 0;
#X connect 9 0 5 1;
#X connect 10 0 9 0;
#X connect 11 0 12 0;
#X connect 12 0 10 0;
#X connect 13 0 11 0;
#X connect 14 0 13 0;
