#N canvas 312 53 411 441 10;
#X obj 63 89 ctlin;
#X obj 63 148 route 0 1 2;
#X obj 62 355 dac~, f 5;
#X obj 63 119 list prepend;
#X obj 107 294 bob~;
#N canvas 711 142 450 300 bobParam 0;
#X obj 104 147 mtof;
#X obj 105 217 line~;
#X text 269 91 "resonance";
#X text 268 108 (>4 to oscillate);
#X obj 250 235 line~;
#X obj 105 249 outlet~;
#X obj 210 53 / 127;
#X obj 233 274 outlet~;
#X obj 101 22 inlet;
#X obj 6 230 outlet;
#X msg 2 144 saturation \$1;
#X text 108 93 resonant or cutoff frequency, f 16;
#X obj 253 138 * 4;
#X obj 2 48 / 127;
#X msg 104 179 \$1 50;
#X obj 8 97 * 1;
#X connect 0 0 14 0;
#X connect 1 0 5 0;
#X connect 4 0 7 0;
#X connect 6 0 12 0;
#X connect 8 0 6 0;
#X connect 8 0 13 0;
#X connect 8 0 0 0;
#X connect 10 0 9 0;
#X connect 12 0 4 0;
#X connect 13 0 15 0;
#X connect 14 0 1 0;
#X connect 15 0 10 0;
#X restore 121 260 pd bobParam;
#X obj 108 176 t a a;
#N canvas 890 298 450 300 synth 0;
#X obj 18 21 inlet;
#X obj 141 146 mtof;
#X obj 141 96 / 4;
#X obj 141 123 + 36;
#X obj 141 69 line;
#X msg 142 47 \$1 50;
#X obj 141 178 osc~;
#X obj 141 211 +~;
#X obj 26 259 outlet~;
#X obj 239 234 min~;
#X obj 252 172 -~ 1;
#X obj 252 197 *~ -50;
#X obj 238 139 phasor~;
#X obj 59 156 outlet;
#X connect 0 0 5 0;
#X connect 1 0 6 0;
#X connect 1 0 12 0;
#X connect 2 0 3 0;
#X connect 3 0 1 0;
#X connect 3 0 13 0;
#X connect 4 0 2 0;
#X connect 5 0 4 0;
#X connect 6 0 7 0;
#X connect 7 0 8 0;
#X connect 9 0 7 1;
#X connect 10 0 11 0;
#X connect 11 0 9 1;
#X connect 12 0 9 0;
#X connect 12 0 10 0;
#X restore 134 202 pd synth;
#N canvas 769 355 450 300 gate~ 0;
#X obj 37 37 inlet;
#X obj 35 240 outlet~;
#X obj 175 48 inlet~;
#X obj 39 81 != 0;
#X obj 36 192 *~;
#X msg 38 107 \$1 50;
#X obj 36 158 line~;
#X connect 0 0 3 0;
#X connect 2 0 4 1;
#X connect 3 0 5 0;
#X connect 4 0 1 0;
#X connect 5 0 6 0;
#X connect 6 0 4 0;
#X restore 107 228 pd gate~;
#N canvas 769 355 450 300 gate~ 0;
#X obj 37 37 inlet;
#X obj 35 240 outlet~;
#X obj 175 48 inlet~;
#X obj 39 81 != 0;
#X obj 36 192 *~;
#X msg 38 107 \$1 50;
#X obj 36 158 line~;
#X connect 0 0 3 0;
#X connect 2 0 4 1;
#X connect 3 0 5 0;
#X connect 4 0 1 0;
#X connect 5 0 6 0;
#X connect 6 0 4 0;
#X restore 62 321 pd gate~;
#X obj 63 227 t a a;
#X obj 309 113 loadbang;
#X obj 309 137 del 100;
#X msg 310 163 \; pd dsp 1;
#X text 33 33 Thereminir using bob~ filter;
#X connect 0 0 3 0;
#X connect 0 1 3 1;
#X connect 1 0 10 0;
#X connect 1 1 6 0;
#X connect 3 0 1 0;
#X connect 4 0 9 1;
#X connect 5 0 4 0;
#X connect 5 1 4 1;
#X connect 5 2 4 2;
#X connect 6 0 8 0;
#X connect 6 1 7 0;
#X connect 7 0 8 1;
#X connect 8 0 4 0;
#X connect 9 0 2 1;
#X connect 9 0 2 0;
#X connect 10 0 9 0;
#X connect 10 1 5 0;
#X connect 11 0 12 0;
#X connect 12 0 13 0;
